<svg width="32" height="32" viewBox="0 0 32 32" fill="none" xmlns="http://www.w3.org/2000/svg">
<path d="M15.8134 23.1467C18.9798 23.1467 21.5467 20.5798 21.5467 17.4134C21.5467 14.247 18.9798 11.6801 15.8134 11.6801C12.6469 11.6801 10.08 14.247 10.08 17.4134C10.08 20.5798 12.6469 23.1467 15.8134 23.1467Z" stroke="#583827" stroke-width="2.064" stroke-miterlimit="10" stroke-linecap="square"/>
<path d="M26.1333 27.7334L5.49335 27.7334C4.22677 27.7334 3.20001 26.7066 3.20001 25.44L3.20001 10.5334C3.20001 9.26681 4.22677 8.24005 5.49335 8.24005L10.08 8.24005L12.3733 4.80005L19.2533 4.80005L21.5467 8.24005L26.1333 8.24005C27.3999 8.24005 28.4267 9.26681 28.4267 10.5334L28.4267 25.44C28.4267 26.7066 27.3999 27.7334 26.1333 27.7334Z" stroke="#583827" stroke-width="2.064" stroke-miterlimit="10" stroke-linecap="round"/>
<path d="M6.66669 12.8401C7.29997 12.8401 7.81335 12.3267 7.81335 11.6934C7.81335 11.0601 7.29997 10.5468 6.66669 10.5468C6.0334 10.5468 5.52002 11.0601 5.52002 11.6934C5.52002 12.3267 6.0334 12.8401 6.66669 12.8401Z" fill="#583827"/>
</svg>
