<svg width="32" height="32" viewBox="0 0 32 32" fill="none" xmlns="http://www.w3.org/2000/svg">
<path d="M15.5906 4.80005L14.7843 4.88442L13.9906 5.05005L13.2156 5.2938L12.4718 5.60942L11.7656 6.00317L11.1 6.46567L10.4843 6.99692L9.92495 7.58442L9.4312 8.22192L8.99995 8.90942L8.6437 9.63755L8.36245 10.4L8.15933 11.1813L8.03745 11.9844L7.99683 12.7938L8.03745 14.1032L8.15933 15.4094L8.36558 16.7032L8.65308 17.9813L9.0187 19.2407L9.46558 20.475L9.98745 21.675L10.5843 22.8407L11.2531 23.9688L11.9937 25.0532L12.8 26.0875L13.6687 27.0688H13.6718L14.0562 27.4157L14.4968 27.6938L14.9718 27.9L15.4781 28.0282L15.9968 28.0813L16.5156 28.0282L17.0187 27.9L17.4968 27.6938L17.9375 27.4157L18.325 27.0688L19.1937 26.0875L19.9968 25.0532L20.7406 23.9688L21.4062 22.8407L22.0031 21.675L22.525 20.475L22.9718 19.2407L23.3406 17.9813L23.625 16.7032L23.8312 15.4094L23.9531 14.1032L23.9968 12.7938L23.9531 11.9844L23.8312 11.1813L23.6312 10.4L23.3468 9.63755L22.9906 8.90942L22.5656 8.22192L22.0687 7.58442L21.5062 6.99692L20.8906 6.46567L20.2281 6.00317L19.5218 5.60942L18.775 5.2938L18 5.05005L17.2062 4.88442L16.4 4.80005H15.5906ZM15.9968 6.3938L16.7124 6.43442L17.4218 6.55317L18.1124 6.75317L18.7718 7.02817L19.4031 7.37505L19.9875 7.79067L20.5218 8.2688L21 8.80317L21.4156 9.38755L21.7624 10.0157L22.0375 10.6813L22.2375 11.3688L22.3593 12.075L22.3968 12.7907L22.3593 14.0032L22.2437 15.2063L22.0531 16.4L21.7906 17.5844L21.45 18.7438L21.0406 19.8813L20.5562 20.9938L20.0062 22.0688L19.3875 23.1094L18.7093 24.1094L17.9624 25.0625L17.1624 25.9688L16.9124 26.1844L16.6312 26.3407L16.3218 26.4344L15.9968 26.4782L15.6718 26.4344L15.3625 26.3407L15.0812 26.1844L14.8312 25.9688L14.0312 25.0625L13.2843 24.1094L12.6062 23.1094L11.9875 22.0688L11.4375 20.9938L10.9531 19.8813L10.5437 18.7438L10.2031 17.5844L9.94058 16.4L9.74995 15.2063L9.63433 14.0032L9.59683 12.7907L9.63745 12.075L9.7562 11.3688L9.95308 10.6813L10.2281 10.0157L10.5781 9.38755L10.9937 8.80317L11.4718 8.2688L12.0062 7.79067L12.5906 7.37505L13.2187 7.02817L13.8843 6.75317L14.5718 6.55317L15.2781 6.43442L15.9968 6.3938ZM15.8656 9.59067L15.3562 9.65317L14.8625 9.80005L14.3968 10.0157L13.9718 10.3094L13.6031 10.6657L13.2937 11.0782L13.0531 11.5375L12.8875 12.025L12.8062 12.5313V13.05L12.8875 13.5563L13.0531 14.0438L13.2937 14.5L13.6031 14.9125L13.9718 15.2657L14.3968 15.5594L14.8625 15.7813L15.3562 15.925L15.8656 15.9875L16.3812 15.9782L16.8875 15.8719L17.3687 15.6875L17.8156 15.4313L18.2156 15.1063L18.5562 14.7219L18.8312 14.2844L19.0312 13.8125L19.1562 13.3125L19.1968 12.7969V12.7938L19.1562 12.2813L19.0312 11.7813L18.8312 11.3063L18.5562 10.8719L18.2156 10.4875L17.8156 10.1563L17.3687 9.90005L16.8875 9.7188L16.3812 9.61255L15.8656 9.59067ZM15.9968 11.1907L16.35 11.2344L16.6906 11.3532L16.9937 11.5438L17.25 11.7969L17.4406 12.0969L17.5562 12.4375L17.5968 12.7938L17.5562 13.1469L17.4406 13.4875L17.25 13.7907L16.9937 14.0469L16.6906 14.2375L16.35 14.3563L15.9968 14.3969L15.6406 14.3563L15.3 14.2375L15 14.0469L14.7468 13.7907L14.5562 13.4875L14.4375 13.1469L14.3968 12.7938L14.4375 12.4375L14.5562 12.0969L14.7468 11.7969L15 11.5438L15.3 11.3532L15.6406 11.2344L15.9968 11.1907Z" fill="#583827"/>
</svg>
