<svg width="32" height="32" viewBox="0 0 32 32" fill="none" xmlns="http://www.w3.org/2000/svg">
<g clip-path="url(#clip0_47_107)">
<path d="M16.1873 3.83875C15.9016 3.83875 15.645 4.01701 15.5461 4.28551L7.09173 27.1742C6.99458 27.4362 7.06741 27.7306 7.27487 27.9179C7.48162 28.1057 7.78199 28.1478 8.0333 28.0245L14.4961 24.8562C15.5622 24.3342 16.81 24.3342 17.8761 24.8562L24.3413 28.0246C24.5919 28.1472 24.8924 28.1051 25.0997 27.9179C25.3072 27.7306 25.3794 27.4356 25.2828 27.1743L16.8283 4.28547C16.7294 4.01709 16.4729 3.83871 16.1873 3.83875Z" fill="#583827" stroke="#CE9A5F" stroke-width="4.14121" stroke-linecap="round" stroke-linejoin="round"/>
<path d="M16.1873 3.83875C15.9016 3.83875 15.645 4.01701 15.5461 4.28551L7.09173 27.1742C6.99458 27.4362 7.06741 27.7306 7.27487 27.9179C7.48162 28.1057 7.78199 28.1478 8.0333 28.0245L14.4961 24.8562C15.5622 24.3342 16.81 24.3342 17.8761 24.8562L24.3413 28.0246C24.5919 28.1472 24.8924 28.1051 25.0997 27.9179C25.3072 27.7306 25.3794 27.4356 25.2828 27.1743L16.8283 4.28547C16.7294 4.01709 16.4729 3.83871 16.1873 3.83875Z" fill="#583827" stroke="#583827" stroke-width="0.000470592"/>
</g>
<defs>
<clipPath id="clip0_47_107">
<rect width="32" height="32" fill="white"/>
</clipPath>
</defs>
</svg>
