<svg width="32" height="33" viewBox="0 0 32 33" fill="none" xmlns="http://www.w3.org/2000/svg">
<g clip-path="url(#clip0_7_172)">
<path fill-rule="evenodd" clip-rule="evenodd" d="M28.7075 28.2925L22.4488 22.035C26.2172 17.5107 25.7606 10.8226 21.4122 6.85246C17.0638 2.88235 10.3618 3.03466 6.19823 7.19823C2.03466 11.3618 1.88235 18.0638 5.85246 22.4122C9.82258 26.7606 16.5107 27.2172 21.035 23.4488L27.2925 29.7075C27.6832 30.0982 28.3168 30.0982 28.7075 29.7075C29.0982 29.3168 29.0982 28.6832 28.7075 28.2925V28.2925ZM5 15C5 10.0294 9.02944 6 14 6C18.9706 6 23 10.0294 23 15C23 19.9706 18.9706 24 14 24C9.03172 23.9945 5.00551 19.9683 5 15V15Z" fill="#583827"/>
</g>
<defs>
<clipPath id="clip0_7_172">
<rect width="32" height="32" fill="white" transform="translate(0 1)"/>
</clipPath>
</defs>
</svg>
