<svg width="32" height="32" viewBox="0 0 32 32" fill="none" xmlns="http://www.w3.org/2000/svg">
<path d="M16 19.4401C17.8999 19.4401 19.44 17.8999 19.44 16.0001C19.44 14.1002 17.8999 12.5601 16 12.5601C14.1001 12.5601 12.56 14.1002 12.56 16.0001C12.56 17.8999 14.1001 19.4401 16 19.4401Z" stroke="#583827" stroke-width="2.064" stroke-miterlimit="10" stroke-linecap="square"/>
<path d="M25.1733 16.0001C25.172 15.3395 25.0997 14.681 24.9578 14.0358L28.0698 11.6794L25.7765 7.70736L22.1725 9.22784C21.1965 8.33309 20.0382 7.6606 18.7772 7.25672L18.2933 3.38672L13.7067 3.38672L13.2228 7.25672C11.9618 7.6606 10.8035 8.33309 9.82748 9.22784L6.22351 7.70736L3.93018 11.6794L7.04223 14.0358C6.75487 15.3295 6.75487 16.6706 7.04223 17.9643L3.93018 20.3207L6.22351 24.2927L9.82748 22.7723C10.8035 23.667 11.9618 24.3395 13.2228 24.7434L13.7067 28.6134L18.2933 28.6134L18.7772 24.7434C20.0382 24.3395 21.1965 23.667 22.1725 22.7723L25.7765 24.2927L28.0698 20.3207L24.9578 17.9643C25.0997 17.3191 25.172 16.6606 25.1733 16.0001Z" stroke="#583827" stroke-width="2.064" stroke-miterlimit="10" stroke-linecap="round"/>
</svg>
